<svg width="100" height="100" viewBox="0 0 100 100" fill="none" xmlns="http://www.w3.org/2000/svg">
<path d="M87.4999 62.5V79.1667H99.9999L83.3333 95.8333L66.6666 79.1667H79.1666V62.5H87.4999ZM87.5332 12.5C89.8124 12.5 91.6666 14.3542 91.6666 16.6375V54.1667H83.3333V20.8333H16.6666V79.1625L58.3333 37.5L70.8332 50V61.7917L58.3333 49.2833L28.4458 79.1667H58.3333V87.5H12.4666C11.37 87.4989 10.3187 87.0625 9.54362 86.2867C8.76859 85.5109 8.33325 84.4591 8.33325 83.3625V16.6375C8.34088 15.5432 8.77867 14.4959 9.55206 13.7217C10.3254 12.9476 11.3723 12.5087 12.4666 12.5H87.5332ZM33.3333 29.1667C35.5434 29.1667 37.663 30.0446 39.2258 31.6074C40.7886 33.1702 41.6666 35.2899 41.6666 37.5C41.6666 39.7101 40.7886 41.8298 39.2258 43.3926C37.663 44.9554 35.5434 45.8333 33.3333 45.8333C31.1231 45.8333 29.0035 44.9554 27.4407 43.3926C25.8779 41.8298 24.9999 39.7101 24.9999 37.5C24.9999 35.2899 25.8779 33.1702 27.4407 31.6074C29.0035 30.0446 31.1231 29.1667 33.3333 29.1667Z" fill="currentColor"/>
</svg>
