<svg width="100" height="100" viewBox="0 0 100 100" fill="none" xmlns="http://www.w3.org/2000/svg">
<path d="M78.5821 23.289C76.1338 17.7505 72.1291 13.0426 67.0549 9.73775C61.9807 6.43291 56.0556 4.67352 50.0001 4.67352C43.9445 4.67352 38.0194 6.43291 32.9452 9.73775C27.871 13.0426 23.8663 17.7505 21.418 23.289C14.5467 26.6663 9.24579 32.5678 6.62253 39.7608C3.99928 46.9539 4.25651 54.8824 7.34049 61.8903C10.4245 68.8982 16.0967 74.4436 23.1726 77.3684C30.2484 80.2932 38.1806 80.3711 45.3126 77.5859V90.625C45.3126 91.8682 45.8064 93.0605 46.6855 93.9395C47.5646 94.8186 48.7569 95.3125 50.0001 95.3125C51.2433 95.3125 52.4355 94.8186 53.3146 93.9395C54.1937 93.0605 54.6876 91.8682 54.6876 90.625V77.5937C58.1695 78.9726 61.8801 79.6829 65.6251 79.6875H66.3751C73.0304 79.5236 79.4375 77.1274 84.5672 72.8839C89.6969 68.6404 93.2514 62.7959 94.6597 56.2892C96.068 49.7825 95.2485 42.9913 92.3326 37.0064C89.4168 31.0215 84.574 26.1904 78.5821 23.289ZM66.1524 70.3125C62.0963 70.4125 58.1031 69.2955 54.6876 67.1054V52.8984L70.8477 44.8164C71.4073 44.5464 71.9076 44.1679 72.3196 43.7028C72.7315 43.2378 73.0469 42.6955 73.2474 42.1074C73.4479 41.5194 73.5296 40.8974 73.4875 40.2775C73.4455 39.6576 73.2807 39.0523 73.0026 38.4967C72.7246 37.9411 72.3388 37.4464 71.8679 37.0412C71.3969 36.636 70.8501 36.3285 70.2592 36.1365C69.6683 35.9445 69.0452 35.8719 68.426 35.9229C67.8068 35.9739 67.2039 36.1475 66.6524 36.4336L54.6876 42.414V34.375C54.6876 33.1318 54.1937 31.9395 53.3146 31.0604C52.4355 30.1813 51.2433 29.6875 50.0001 29.6875C48.7569 29.6875 47.5646 30.1813 46.6855 31.0604C45.8064 31.9395 45.3126 33.1318 45.3126 34.375V51.789L33.3477 45.8086C32.2386 45.2735 30.9635 45.1963 29.7979 45.5937C28.6324 45.9911 27.67 46.8313 27.1189 47.9325C26.5678 49.0337 26.4721 50.3076 26.8527 51.4788C27.2332 52.65 28.0593 53.6244 29.1524 54.1914L45.3126 62.2734V67.1054C41.8947 69.2902 37.9031 70.4068 33.8477 70.3125C23.0938 70.043 14.0352 60.7187 14.0626 49.9492C14.0642 45.9028 15.2788 41.9498 17.5494 38.6006C19.8201 35.2514 23.0426 32.6597 26.8008 31.1601C27.409 30.915 27.9589 30.5449 28.4151 30.0739C28.8713 29.6029 29.2236 29.0414 29.4493 28.4258C30.9866 24.2107 33.7829 20.5703 37.4591 17.998C41.1352 15.4258 45.5134 14.0462 50.0001 14.0462C54.4868 14.0462 58.8649 15.4258 62.5411 17.998C66.2172 20.5703 69.0135 24.2107 70.5508 28.4258C70.7765 29.0414 71.1288 29.6029 71.585 30.0739C72.0412 30.5449 72.5911 30.915 73.1993 31.1601C76.9563 32.6592 80.178 35.2497 82.4485 38.5974C84.7191 41.9451 85.9344 45.8963 85.9376 49.9414C85.9688 60.707 76.9063 70.0351 66.1524 70.3125Z" fill="currentColor"/>
</svg>
