<svg width="100" height="100" viewBox="0 0 100 100" fill="none" xmlns="http://www.w3.org/2000/svg">
<path d="M50.2778 30.5555C39.4445 30.5555 30.8334 39.1667 30.8334 50C30.8334 60.8333 39.4445 69.4444 50.2778 69.4444C61.1112 69.4444 69.7223 60.8333 69.7223 50C69.7223 39.1667 61.1112 30.5555 50.2778 30.5555ZM50.2778 63.8889C42.5 63.8889 36.3889 57.7778 36.3889 50C36.3889 42.2222 42.5 36.1111 50.2778 36.1111C58.0556 36.1111 64.1667 42.2222 64.1667 50C64.1667 57.7778 58.0556 63.8889 50.2778 63.8889Z" fill="black"/>
<path d="M91.1112 40.8333L83.3334 38.3333L81.6668 34.1667L85.5557 26.9444C86.389 25.2778 86.1112 23.0555 84.7223 21.6667L78.0557 15C76.6668 13.6111 74.4445 13.3333 72.7779 14.1667L65.5557 18.0555L61.389 16.3889L58.889 8.6111C58.3334 6.94443 56.6668 5.55554 54.7223 5.55554H45.2779C43.3334 5.55554 41.6668 6.94443 41.389 8.88888L38.889 16.6667C37.2223 16.9444 35.8334 17.5 34.4446 18.3333L27.2223 14.4444C25.5557 13.6111 23.3334 13.8889 21.9446 15.2778L15.2779 21.9444C13.889 23.3333 13.6112 25.5555 14.4446 27.2222L18.0557 34.1667C17.5001 35.5555 16.9446 37.2222 16.389 38.6111L8.61122 41.1111C6.94455 41.6667 5.55566 43.3333 5.55566 45.2778V54.7222C5.55566 56.6667 6.94455 58.3333 8.889 58.8889L16.6668 61.3889L18.3334 65.5555L14.4446 72.7778C13.6112 74.4444 13.889 76.6666 15.2779 78.0555L21.9446 84.7222C23.3334 86.1111 25.5557 86.3889 27.2223 85.5555L34.4446 81.6666L38.6112 83.3333L41.1112 91.3889C41.6668 93.0555 43.3334 94.4444 45.2779 94.4444H54.7223C56.6668 94.4444 58.3334 93.0555 58.889 91.3889L61.389 83.3333L65.5557 81.6666L72.7779 85.5555C74.4445 86.3889 76.6668 86.1111 78.0557 84.7222L84.7223 78.0555C86.1112 76.6666 86.389 74.4444 85.5557 72.7778L81.6668 65.5555L83.3334 61.3889L91.389 58.8889C93.0557 58.3333 94.4445 56.6667 94.4445 54.7222V45.2778C94.4445 43.3333 93.0557 41.3889 91.1112 40.8333ZM88.889 53.8889L78.889 56.9444L78.6112 58.3333L76.1112 64.1667L75.2779 65.5555L80.2779 74.7222L74.7223 80.2778L65.5557 75.2778L64.1668 76.1111C62.2223 77.2222 60.2779 78.0555 58.3334 78.6111L56.9445 78.8889L53.889 88.8889H46.1112L43.0557 78.8889L41.6668 78.6111L35.8334 76.1111L34.4446 75.2778L25.2779 80.2778L19.7223 74.7222L24.7223 65.5555L23.889 64.1667C22.7779 62.2222 21.9446 60.2778 21.389 58.3333L21.1112 56.9444L11.1112 53.8889V46.1111L20.5557 43.3333L21.1112 41.9444C21.6668 39.7222 22.5001 37.7778 23.6112 35.8333L24.4446 34.4444L19.7223 25.2778L25.2779 19.7222L34.1668 24.7222L35.5557 23.8889C37.5001 22.7778 39.4446 21.9444 41.6668 21.3889L43.0557 20.8333L46.1112 11.1111H53.889L56.9445 20.8333L58.3334 21.3889C60.2779 21.9444 62.2223 22.7778 64.1668 23.8889L65.5557 24.7222L74.7223 19.7222L80.2779 25.2778L75.2779 34.4444L76.1112 35.8333C77.2223 37.7778 78.0557 39.7222 78.6112 41.6667L78.889 43.0555L88.889 46.1111V53.8889Z" fill="currentColor"/>
</svg>
