<svg width="100" height="100" viewBox="0 0 100 100" fill="none" xmlns="http://www.w3.org/2000/svg">
<path fill-rule="evenodd" clip-rule="evenodd" d="M68.75 18.6583V19.6041C74.1624 20.0999 79.5528 20.8116 84.9084 21.7375C85.3127 21.8075 85.6993 21.9565 86.0461 22.176C86.3929 22.3954 86.693 22.681 86.9294 23.0165C87.1658 23.3519 87.3339 23.7307 87.4239 24.131C87.5139 24.5314 87.5242 24.9456 87.4542 25.35C87.3841 25.7543 87.2352 26.1409 87.0157 26.4877C86.7963 26.8345 86.5107 27.1347 86.1752 27.3711C85.8398 27.6075 85.461 27.7755 85.0606 27.8655C84.6602 27.9556 84.246 27.9659 83.8417 27.8958L82.9709 27.75L78.7834 82.2083C78.5419 85.3482 77.1242 88.2813 74.8137 90.4211C72.5031 92.561 69.47 93.7498 66.3209 93.75H33.6834C30.5342 93.7498 27.5011 92.561 25.1906 90.4211C22.88 88.2813 21.4623 85.3482 21.2209 82.2083L17.0292 27.75L16.1584 27.8958C15.754 27.9659 15.3398 27.9556 14.9394 27.8655C14.539 27.7755 14.1603 27.6075 13.8249 27.3711C13.1474 26.8936 12.6873 26.1666 12.5459 25.35C12.4044 24.5333 12.5932 23.6939 13.0706 23.0165C13.548 22.339 14.275 21.8789 15.0917 21.7375C20.4473 20.8116 25.8377 20.0999 31.25 19.6041V18.6583C31.25 12.1416 36.3042 6.57498 42.9834 6.36248C47.6613 6.21373 52.3429 6.21373 57.0209 6.36248C63.7 6.57498 68.75 12.1416 68.75 18.6583ZM43.1834 12.6083C47.728 12.4624 52.2762 12.4624 56.8209 12.6083C59.9584 12.7083 62.5 15.35 62.5 18.6583V19.1291C54.1742 18.6287 45.8258 18.6287 37.5 19.1291V18.6583C37.5 15.35 40.0375 12.7083 43.1834 12.6083ZM41.7042 37.3791C41.6883 36.9688 41.5918 36.5655 41.4201 36.1925C41.2484 35.8194 41.0049 35.4838 40.7035 35.2048C40.4021 34.9259 40.0487 34.709 39.6634 34.5666C39.2782 34.4242 38.8687 34.3591 38.4584 34.375C38.048 34.3908 37.6447 34.4874 37.2717 34.6591C36.8986 34.8308 36.563 35.0743 36.284 35.3757C36.0051 35.6771 35.7882 36.0305 35.6458 36.4157C35.5034 36.8009 35.4383 37.2104 35.4542 37.6208L36.9 75.1208C36.9321 75.9491 37.2918 76.7307 37.9001 77.2937C38.2014 77.5724 38.5545 77.7891 38.9395 77.9314C39.3245 78.0737 39.7337 78.1388 40.1438 78.1229C40.5539 78.107 40.9569 78.0105 41.3297 77.8389C41.7025 77.6673 42.0379 77.424 42.3166 77.1228C42.5954 76.8216 42.8121 76.4684 42.9544 76.0834C43.0967 75.6985 43.1617 75.2893 43.1459 74.8792L41.7042 37.3791ZM64.5375 37.6208C64.5681 37.2026 64.5141 36.7824 64.3789 36.3854C64.2436 35.9885 64.0299 35.6228 63.7503 35.3102C63.4708 34.9975 63.1312 34.7444 62.7517 34.5658C62.3723 34.3872 61.9608 34.2867 61.5417 34.2705C61.1227 34.2543 60.7046 34.3226 60.3125 34.4713C59.9204 34.6201 59.5622 34.8462 59.2593 35.1363C58.9565 35.4263 58.7151 35.7744 58.5495 36.1597C58.384 36.5451 58.2977 36.9598 58.2959 37.3791L56.85 74.8792C56.818 75.708 57.1165 76.5155 57.6799 77.1243C58.2433 77.733 59.0254 78.0929 59.8542 78.125C60.683 78.157 61.4906 77.8585 62.0993 77.2951C62.708 76.7317 63.068 75.9496 63.1 75.1208L64.5375 37.6208Z" fill="currentColor"/>
</svg>
