<svg width="100" height="100" viewBox="0 0 100 100" fill="none" xmlns="http://www.w3.org/2000/svg">
<path fill-rule="evenodd" clip-rule="evenodd" d="M43.5 19.5357C48.8095 23.0124 52.6844 28.2899 54.4116 34.3968C56.1388 40.5036 55.602 47.0289 52.9 52.7714C57.7244 56.4861 63.5968 58.5856 69.6828 58.7714C75.7687 58.9572 81.7583 57.2199 86.8002 53.8065C91.8422 50.393 95.6799 45.4772 97.7678 39.7576C99.8557 34.038 100.088 27.8059 98.4306 21.947C96.7735 16.088 93.3118 10.9005 88.5375 7.12181C83.7632 3.34309 77.9192 1.16545 71.8363 0.898432C65.7535 0.631417 59.7412 2.28861 54.6541 5.63446C49.5671 8.9803 45.6641 13.8445 43.5 19.5357ZM70.5786 27.15C73.0429 27.15 75.0429 29.15 75.0429 31.6143V44.4357C75.0429 45.6197 74.5726 46.7552 73.7353 47.5924C72.8981 48.4297 71.7626 48.9 70.5786 48.9C69.3946 48.9 68.2591 48.4297 67.4219 47.5924C66.5847 46.7552 66.1143 45.6197 66.1143 44.4357V31.6143C66.1143 29.15 68.1143 27.15 70.5786 27.15ZM65.3429 15.8643C65.3429 19.2286 68.1286 20.7071 70.0929 20.9214L70.5929 20.95C72.5429 20.95 75.8358 19.5214 75.8358 15.8643C75.8358 12.4929 73.05 11.0143 71.0858 10.8L70.5858 10.7714C68.6358 10.7714 65.3429 12.2 65.3429 15.8643ZM29.0358 58.9929C31.3537 59.0398 33.6578 58.6238 35.813 57.7692C37.9681 56.9146 39.9312 55.6385 41.5871 54.0158C43.243 52.3931 44.5584 50.4563 45.4565 48.3189C46.3546 46.1814 46.8171 43.8863 46.8171 41.5679C46.8171 39.2494 46.3546 36.9543 45.4565 34.8168C44.5584 32.6794 43.243 30.7426 41.5871 29.1199C39.9312 27.4972 37.9681 26.2212 35.813 25.3665C33.6578 24.5119 31.3537 24.0959 29.0358 24.1429C24.4754 24.2352 20.1331 26.1116 16.9406 29.3694C13.7481 32.6271 11.96 37.0066 11.96 41.5679C11.96 46.1291 13.7481 50.5086 16.9406 53.7663C20.1331 57.0241 24.4754 58.9005 29.0358 58.9929ZM3.83764e-05 93.8357C-0.0118095 86.5443 2.72008 79.5153 7.65278 74.1456C12.5855 68.776 19.3579 65.4587 26.6241 64.8531C33.8904 64.2476 41.1185 66.3979 46.872 70.877C52.6255 75.356 56.4833 81.8358 57.6786 89.0286H94.5143C95.9351 89.0286 97.2977 89.593 98.3024 90.5976C99.3071 91.6023 99.8715 92.9649 99.8715 94.3857C99.8715 95.8065 99.3071 97.1691 98.3024 98.1738C97.2977 99.1784 95.9351 99.7429 94.5143 99.7429H5.50004C4.14377 99.7425 2.83812 99.2277 1.84653 98.3024C0.854936 97.3771 0.251216 96.1101 0.157181 94.7571C0.0570013 94.4603 0.00632496 94.149 0.00718123 93.8357H3.83764e-05Z" fill="currentColor"/>
</svg>
